<svg width="107" height="107" viewBox="0 0 107 107" fill="none" xmlns="http://www.w3.org/2000/svg">
<path d="M53.4999 40.125C49.9526 40.125 46.5507 41.5341 44.0424 44.0424C41.5341 46.5507 40.1249 49.9527 40.1249 53.5C40.1249 57.0473 41.5341 60.4493 44.0424 62.9576C46.5507 65.4659 49.9526 66.875 53.4999 66.875C57.0472 66.875 60.4492 65.4659 62.9575 62.9576C65.4658 60.4493 66.8749 57.0473 66.8749 53.5C66.8749 49.9527 65.4658 46.5507 62.9575 44.0424C60.4492 41.5341 57.0472 40.125 53.4999 40.125ZM53.4999 75.7917C47.5878 75.7917 41.9178 73.4431 37.7373 69.2626C33.5568 65.0821 31.2083 59.4121 31.2083 53.5C31.2083 47.5879 33.5568 41.9179 37.7373 37.7374C41.9178 33.5569 47.5878 31.2083 53.4999 31.2083C59.412 31.2083 65.082 33.5569 69.2625 37.7374C73.443 41.9179 75.7916 47.5879 75.7916 53.5C75.7916 59.4121 73.443 65.0821 69.2625 69.2626C65.082 73.4431 59.412 75.7917 53.4999 75.7917ZM53.4999 20.0625C31.2083 20.0625 12.1712 33.9279 4.45825 53.5C12.1712 73.0721 31.2083 86.9375 53.4999 86.9375C75.7916 86.9375 94.8287 73.0721 102.542 53.5C94.8287 33.9279 75.7916 20.0625 53.4999 20.0625Z" fill="url(#paint0_linear_710_445)"/>
<defs>
<linearGradient id="paint0_linear_710_445" x1="53.4999" y1="20.0625" x2="53.4999" y2="92.4886" gradientUnits="userSpaceOnUse">
<stop stop-color="#0F7A27"/>
<stop offset="0.924256" stop-color="#04310E"/>
</linearGradient>
</defs>
</svg>
