<svg width="107" height="107" viewBox="0 0 107 107" fill="none" xmlns="http://www.w3.org/2000/svg">
<path d="M53.5001 8.91675C57.4947 8.91675 61.3646 9.44283 65.0472 10.4281L55.5687 19.9021C54.8497 20.624 54.2154 21.4258 53.6784 22.2917H53.5001C47.3277 22.2917 41.2938 24.1221 36.1617 27.5513C31.0295 30.9805 27.0294 35.8546 24.6673 41.5572C22.3053 47.2597 21.6872 53.5347 22.8914 59.5885C24.0956 65.6423 27.0679 71.2031 31.4325 75.5677C35.797 79.9323 41.3578 82.9046 47.4116 84.1087C53.4655 85.3129 59.7404 84.6949 65.443 82.3328C71.1456 79.9707 76.0196 75.9707 79.4489 70.8385C82.8781 65.7063 84.7084 59.6725 84.7084 53.5001V53.3217C85.5704 52.7867 86.3654 52.1551 87.0936 51.427L96.572 41.953C97.5573 45.6356 98.0834 49.5054 98.0834 53.5001C98.0834 78.1235 78.1235 98.0834 53.5001 98.0834C28.8767 98.0834 8.91675 78.1235 8.91675 53.5001C8.91675 28.8767 28.8767 8.91675 53.5001 8.91675ZM51.6543 31.2842C51.6543 35.0782 51.4671 38.9258 51.6722 42.7154L49.2647 45.1229C48.4365 45.951 47.7796 46.9342 47.3314 48.0162C46.8832 49.0983 46.6525 50.258 46.6525 51.4292C46.6525 52.6004 46.8832 53.7601 47.3314 54.8421C47.7796 55.9242 48.4365 56.9073 49.2647 57.7355C50.0928 58.5637 51.076 59.2206 52.158 59.6688C53.2401 60.117 54.3998 60.3477 55.571 60.3477C56.7422 60.3477 57.9019 60.117 58.9839 59.6688C60.066 59.2206 61.0491 58.5637 61.8773 57.7355L64.2848 55.328C68.0744 55.5331 71.9174 55.3458 75.716 55.3458C75.3638 59.5828 73.8073 63.6306 71.2301 67.012C68.6529 70.3934 65.1625 72.9672 61.1705 74.43C57.1785 75.8928 52.8515 76.1834 48.6997 75.2677C44.5479 74.352 40.7446 72.2681 37.7383 69.2618C34.732 66.2555 32.6481 62.4522 31.7324 58.3005C30.8167 54.1487 31.1074 49.8217 32.5702 45.8297C34.0329 41.8377 36.6068 38.3473 39.9882 35.7701C43.3695 33.1929 47.4174 31.6364 51.6543 31.2842ZM82.4971 9.48296C83.3108 9.82036 84.0064 10.3913 84.496 11.1237C84.9856 11.856 85.2472 12.7171 85.2479 13.598V21.7567H93.4022C94.2838 21.7569 95.1456 22.0185 95.8786 22.5084C96.6116 22.9983 97.1829 23.6945 97.5202 24.5091C97.8576 25.3236 97.9459 26.2199 97.7739 27.0846C97.602 27.9493 97.1775 28.7436 96.5542 29.3671L80.7851 45.1184C79.9492 45.9546 78.8154 46.4244 77.633 46.4247H66.8751L58.7252 54.579C57.8887 55.4156 56.7541 55.8855 55.571 55.8855C54.3879 55.8855 53.2533 55.4156 52.4167 54.579C51.5801 53.7424 51.1102 52.6078 51.1102 51.4247C51.1102 50.2416 51.5801 49.107 52.4167 48.2705L60.571 40.1251V29.3627C60.5705 28.7765 60.6857 28.196 60.9098 27.6543C61.134 27.1127 61.4627 26.6206 61.8773 26.2062L77.6375 10.446C78.261 9.82209 79.0555 9.39717 79.9205 9.22496C80.7855 9.05275 81.6822 9.14098 82.4971 9.4785" fill="url(#paint0_linear_710_441)"/>
<defs>
<linearGradient id="paint0_linear_710_441" x1="53.5001" y1="8.91675" x2="53.5001" y2="105.485" gradientUnits="userSpaceOnUse">
<stop stop-color="#0F7A27"/>
<stop offset="0.924256" stop-color="#04310E"/>
</linearGradient>
</defs>
</svg>
