<svg width="19" height="19" viewBox="0 0 19 19" fill="none" xmlns="http://www.w3.org/2000/svg">
<path d="M15.4351 6.32463L9.5 12.1101L3.56488 6.32463C3.45884 6.22105 3.31649 6.16305 3.16825 6.16305C3.02002 6.16305 2.87766 6.22105 2.77163 6.32463C2.72028 6.37494 2.67949 6.43498 2.65164 6.50125C2.6238 6.56752 2.60945 6.63868 2.60945 6.71057C2.60945 6.78245 2.6238 6.85361 2.65164 6.91988C2.67949 6.98615 2.72028 7.0462 2.77163 7.0965L9.08556 13.2525C9.19644 13.3606 9.34516 13.4211 9.5 13.4211C9.65484 13.4211 9.80356 13.3606 9.91444 13.2525L16.2284 7.09769C16.2801 7.04735 16.3212 6.98715 16.3492 6.92066C16.3773 6.85417 16.3918 6.78274 16.3918 6.71057C16.3918 6.6384 16.3773 6.56696 16.3492 6.50047C16.3212 6.43398 16.2801 6.37379 16.2284 6.32344C16.1223 6.21986 15.98 6.16187 15.8318 6.16187C15.6835 6.16187 15.5412 6.21986 15.4351 6.32344V6.32463Z" fill="white"/>
</svg>
